<svg width="32" height="32" viewBox="0 0 32 32" fill="none" xmlns="http://www.w3.org/2000/svg">
<circle cx="16" cy="16" r="15" stroke="#343632" stroke-width="2"/>
<g clip-path="url(#clip0_2011_16)">
<path d="M19.75 8.5H12.25C10.1789 8.5 8.5 10.1789 8.5 12.25V19.75C8.5 21.8211 10.1789 23.5 12.25 23.5H19.75C21.8211 23.5 23.5 21.8211 23.5 19.75V12.25C23.5 10.1789 21.8211 8.5 19.75 8.5Z" stroke="black" stroke-width="1.5" stroke-linecap="round" stroke-linejoin="round"/>
<path d="M19.0003 15.5275C19.0928 16.1517 18.9862 16.7891 18.6956 17.3492C18.405 17.9093 17.9451 18.3635 17.3815 18.6472C16.8178 18.9309 16.1791 19.0297 15.5561 18.9294C14.9331 18.8292 14.3576 18.535 13.9114 18.0889C13.4652 17.6427 13.1711 17.0671 13.0708 16.4441C12.9706 15.8211 13.0693 15.1824 13.353 14.6188C13.6367 14.0551 14.0909 13.5953 14.651 13.3047C15.2111 13.014 15.8486 12.9074 16.4728 13C17.1095 13.0944 17.6989 13.3911 18.154 13.8462C18.6092 14.3013 18.9059 14.8908 19.0003 15.5275Z" stroke="black" stroke-width="1.5" stroke-linecap="round" stroke-linejoin="round"/>
<path d="M20.125 11.875H20.1325" stroke="black" stroke-width="1.5" stroke-linecap="round" stroke-linejoin="round"/>
</g>
<defs>
<clipPath id="clip0_2011_16">
<rect width="18" height="18" fill="white" transform="translate(7 7)"/>
</clipPath>
</defs>
</svg>
