<svg width="169" height="54" viewBox="0 0 169 54" fill="none" xmlns="http://www.w3.org/2000/svg">
<rect x="2" y="2" width="165" height="50" stroke="#100303" stroke-width="4"/>
<path d="M29.7055 38V20.92H24.4135V17.14H39.2535V20.92H34.0455V38H29.7055ZM39.4682 38L46.5242 17.14H52.2922L59.3482 38H54.6162L53.2162 33.744H45.5722L44.1722 38H39.4682ZM46.7762 29.964H52.0122L48.8202 20.108H49.9962L46.7762 29.964ZM62.516 38V17.14H66.856V34.22H75.676V38H62.516ZM78.8285 38V17.14H83.1685V34.22H91.9885V38H78.8285ZM95.141 38V17.14H99.481V38H95.141ZM104.18 38V17.14H107.512L118.712 31.896L116.92 32.316V17.14H121.26V38H117.9L106.896 23.132L108.52 22.712V38H104.18ZM125.961 38V17.14H129.293L140.493 31.896L138.701 32.316V17.14H143.041V38H139.681L128.677 23.132L130.301 22.712V38H125.961Z" fill="#100303"/>
</svg>
