<svg width="32" height="32" viewBox="0 0 32 32" fill="none" xmlns="http://www.w3.org/2000/svg">
<path d="M24.25 9.24997C23.5318 9.75658 22.7366 10.1441 21.895 10.3975C21.4433 9.87811 20.843 9.50999 20.1753 9.34292C19.5076 9.17584 18.8046 9.21787 18.1616 9.46331C17.5185 9.70876 16.9663 10.1458 16.5797 10.7153C16.1931 11.2847 15.9908 11.9592 16 12.6475V13.3975C14.682 13.4316 13.376 13.1393 12.1983 12.5466C11.0206 11.9538 10.0077 11.079 9.25 9.99997C9.25 9.99997 6.25 16.75 13 19.75C11.4554 20.7984 9.61537 21.3242 7.75 21.25C14.5 25 22.75 21.25 22.75 12.625C22.7493 12.4161 22.7292 12.2077 22.69 12.0025C23.4555 11.2476 23.9956 10.2945 24.25 9.24997Z" stroke="black" stroke-width="1.5" stroke-linecap="round" stroke-linejoin="round"/>
<circle cx="16" cy="16" r="15" stroke="#343632" stroke-width="2"/>
</svg>
